<?xml version="1.0" standalone="no"?>
<!DOCTYPE svg PUBLIC "-//W3C//DTD SVG 20010904//EN"
 "http://www.w3.org/TR/2001/REC-SVG-20010904/DTD/svg10.dtd">
<svg version="1.0" xmlns="http://www.w3.org/2000/svg"
 width="256.000000pt" height="256.000000pt" viewBox="0 0 256.000000 256.000000"
 preserveAspectRatio="xMidYMid meet">
<metadata>
Created by potrace 1.14, written by Peter Selinger 2001-2017
</metadata>
<g transform="translate(0.000000,256.000000) scale(0.100000,-0.100000)"
fill="#000000" stroke="none">
<path d="M1208 2489 c-40 -41 -82 -85 -93 -99 -44 -55 -114 -186 -125 -231
-36 -149 72 -315 225 -345 189 -37 360 99 359 286 0 53 -6 77 -34 135 -41 83
-127 199 -204 274 l-56 55 -72 -75z"/>
<path d="M298 1799 c-6 -4 -8 -15 -4 -25 3 -11 8 -32 11 -49 2 -16 9 -55 15
-85 5 -30 12 -68 15 -85 2 -16 7 -41 10 -55 4 -22 7 -39 21 -115 2 -11 15 -83
29 -160 14 -77 27 -151 30 -165 3 -14 8 -38 10 -55 3 -16 24 -131 46 -255 23
-124 43 -236 45 -250 3 -14 16 -86 30 -160 14 -74 27 -151 30 -170 3 -19 11
-64 17 -100 l12 -65 662 -3 c736 -2 665 -9 678 63 3 17 14 80 25 140 11 61 22
121 25 135 10 51 25 136 30 175 4 22 10 56 15 75 4 19 12 58 16 85 4 28 8 55
10 60 4 15 37 200 49 278 3 17 8 39 10 47 2 8 7 31 10 50 8 54 70 395 78 435
7 34 40 229 41 245 1 13 -43 15 -323 15 l-325 0 -45 -37 c-51 -42 -132 -85
-179 -94 -18 -4 -33 -9 -33 -13 -7 -34 -3 -151 6 -154 5 -2 130 -3 277 -3 148
1 268 -1 268 -4 0 -3 -9 -52 -21 -110 -11 -58 -22 -116 -24 -130 -3 -22 -10
-65 -21 -125 -34 -181 -57 -304 -60 -320 -2 -11 -6 -33 -9 -50 -3 -16 -12 -68
-21 -114 -19 -106 -58 -183 -122 -243 -90 -84 -163 -105 -363 -102 -69 0 -142
4 -162 8 -90 17 -192 87 -242 166 -22 35 -51 113 -59 160 -2 14 -15 88 -30
165 -14 77 -28 154 -30 170 -3 17 -8 41 -11 55 -2 13 -7 42 -11 65 -3 22 -10
63 -16 90 -5 28 -12 64 -15 80 -2 17 -13 75 -24 129 -10 55 -16 102 -13 105 3
3 128 6 277 6 l272 0 0 73 c1 40 -2 76 -5 81 -3 6 -18 12 -34 15 -46 8 -127
52 -176 93 l-44 38 -319 0 c-175 0 -323 -3 -329 -6z"/>
<path d="M834 1330 c4 -20 30 -162 52 -290 3 -14 18 -97 34 -185 16 -88 32
-175 35 -194 14 -84 58 -146 130 -184 36 -19 57 -21 195 -21 174 0 210 11 265
76 41 48 51 79 79 239 26 143 31 171 41 219 2 14 7 41 10 60 3 19 17 95 30
168 14 73 25 134 25 135 0 1 -203 2 -450 2 l-451 0 5 -25z"/>
</g>
</svg>
